<svg width="22" height="21" xmlns="http://www.w3.org/2000/svg" xmlns:xlink="http://www.w3.org/1999/xlink" overflow="hidden"><defs><clipPath id="clip0"><rect x="0" y="0" width="22" height="21"/></clipPath></defs><g clip-path="url(#clip0)"><path d="M10.5 3.13425 12.2719 8.45316 12.3716 8.75241 18.081 8.75241 13.932 12.3618 13.7189 12.5471 13.8001 12.8177 15.4101 18.1853 10.7487 14.957 10.5 14.7847 10.2508 14.957 5.58972 18.1845 7.19972 12.8168 7.28088 12.5462 7.06781 12.3609 2.91878 8.75153 8.62816 8.75153 8.72791 8.45228ZM8.3125 8.31491 1.75 8.31491 6.78125 12.6899 4.8125 19.2555 10.5 15.3169 16.1875 19.2555 14.2188 12.691 19.25 8.316 12.6875 8.316 10.5 1.75Z" stroke="#000000" stroke-width="0.799999" fill="#FFFFFF" transform="matrix(-1.04762 0 0 1 22 0)"/></g></svg>